<?xml version="1.0" encoding="utf-8"?>
<!-- Generator: Adobe Illustrator 23.1.1, SVG Export Plug-In . SVG Version: 6.00 Build 0)  -->
<svg version="1.1" id="Layer_1" xmlns="http://www.w3.org/2000/svg" xmlns:xlink="http://www.w3.org/1999/xlink" x="0px" y="0px"
	 viewBox="40 40 280 280" style="enable-background:new 40 40 280 280;" xml:space="preserve">
<style type="text/css">
	.st0{fill:#FAA819;}
	.st1{fill:#FDB84C;}
	.st2{fill:#FFFFFF;}
</style>
<g>
	<path class="st0" d="M253.94,140.99c-2.17,0-4.27-1.18-5.33-3.24c-1.52-2.94-0.37-6.56,2.57-8.08l36.9-19.09L180,48.17
		l-108.08,62.4l50.54,26.15c2.94,1.52,4.09,5.14,2.57,8.08c-1.07,2.06-3.16,3.24-5.33,3.24c-0.93,0-1.87-0.22-2.75-0.67
		l-51.11-26.44v124.99L174,308.37v-65.42c0-3.31,2.69-6,6-6s6,2.69,6,6v65.42l108.17-62.45V120.92l-37.48,19.39
		C255.81,140.77,254.87,140.99,253.94,140.99z M188.17,201.69l-15.85,15.85c-4.72,4.72-10.92,7.08-17.11,7.08
		c-6.2,0-12.4-2.36-17.11-7.08c-9.43-9.44-9.43-24.79,0-34.22l14.27-14.27c1.07-1.05,2.47-1.62,3.74-1.54
		c1.38,0.02,2.66,0.57,3.62,1.56c0.96,0.98,1.47,2.28,1.45,3.66c-0.02,1.38-0.57,2.66-1.56,3.62l-14.25,14.25
		c-5.52,5.52-5.52,14.16,0,19.67c5.52,5.52,14.16,5.51,19.68,0l15.85-15.85c5.09-5.09,5.48-12.84,1.18-18.34l-0.89,0.89l-1.26-1.26
		c-2.54-2.54-2.54-6.66,0-9.2c1.65-1.66,3.38-1.67,4.55-1.37c1.21,0.3,2.42,1.06,3.69,2.33c4.56,4.56,7.08,10.64,7.08,17.11
		C195.25,191.05,192.73,197.12,188.17,201.69z M219.87,169.98l-14.27,14.27c-1.06,1.04-2.37,1.51-3.74,1.54
		c-1.37-0.02-2.66-0.57-3.62-1.55c-1.98-2.03-1.94-5.29,0.09-7.27l14.25-14.25c5.52-5.52,5.52-14.16,0-19.68
		c-5.52-5.52-14.16-5.52-19.67,0l-15.85,15.85c-5.52,5.52-5.52,14.16,0,19.68c0.97,0.97,1.51,2.26,1.51,3.64
		c0,1.38-0.53,2.67-1.51,3.64c-1,1-2.32,1.5-3.64,1.5c-1.32,0-2.63-0.5-3.64-1.5c-4.56-4.56-7.08-10.64-7.08-17.11
		c0-6.47,2.51-12.55,7.08-17.11l15.85-15.85c9.44-9.44,24.79-9.43,34.22,0c4.56,4.56,7.08,10.64,7.08,17.11
		C226.95,159.34,224.44,165.42,219.87,169.98z"/>
	<path class="st1" d="M180,236.95c-3.31,0-6,2.69-6,6v65.42l6,3.46l6-3.46v-65.42C186,239.64,183.31,236.95,180,236.95z"/>
	<path class="st1" d="M119.69,148.04c2.17,0,4.27-1.18,5.33-3.24c1.52-2.94,0.37-6.56-2.57-8.08l-50.54-26.15l-6.09,3.52v6.84
		l51.11,26.44C117.83,147.82,118.77,148.04,119.69,148.04z"/>
	<path class="st1" d="M288.08,110.57l-36.9,19.09c-2.94,1.52-4.09,5.14-2.57,8.08c1.07,2.06,3.16,3.24,5.33,3.24
		c0.93,0,1.87-0.22,2.75-0.67l37.48-19.39v-6.84L288.08,110.57z"/>
	<path class="st2" d="M185.65,135.76l-15.85,15.85c-4.56,4.56-7.08,10.64-7.08,17.11c0,6.47,2.51,12.55,7.08,17.11
		c1,1,2.32,1.5,3.64,1.5c1.32,0,2.63-0.5,3.64-1.5c0.97-0.97,1.51-2.26,1.51-3.64c0-1.37-0.53-2.67-1.51-3.64
		c-5.52-5.52-5.52-14.16,0-19.68l15.85-15.85c5.52-5.52,14.16-5.52,19.67,0c5.52,5.52,5.52,14.16,0,19.68l-14.25,14.25
		c-2.03,1.98-2.07,5.24-0.09,7.27c0.96,0.98,2.24,1.54,3.62,1.55c1.37-0.03,2.67-0.5,3.74-1.54l14.27-14.27
		c4.56-4.56,7.08-10.64,7.08-17.11c0-6.47-2.51-12.55-7.08-17.11C210.44,126.33,195.09,126.32,185.65,135.76z"/>
	<path class="st2" d="M184.48,165.13c-1.17-0.3-2.89-0.29-4.55,1.37c-2.54,2.54-2.54,6.66,0,9.2l1.26,1.26l0.89-0.89
		c4.3,5.5,3.91,13.25-1.18,18.34l-15.85,15.85c-5.52,5.51-14.16,5.52-19.68,0c-5.52-5.52-5.52-14.16,0-19.67l14.25-14.25
		c0.99-0.96,1.54-2.24,1.56-3.62c0.02-1.37-0.5-2.67-1.45-3.66c-0.96-0.99-2.24-1.54-3.62-1.56c-1.28-0.08-2.67,0.5-3.74,1.54
		l-14.27,14.27c-9.43,9.44-9.43,24.79,0,34.22c4.72,4.72,10.92,7.08,17.11,7.08c6.2,0,12.39-2.36,17.11-7.08l15.85-15.85
		c4.56-4.56,7.08-10.64,7.08-17.11c0-6.47-2.51-12.55-7.08-17.11C186.9,166.2,185.69,165.43,184.48,165.13z"/>
</g>
</svg>
