<?xml version="1.0" standalone="no"?><!-- Generator: Gravit.io --><svg xmlns="http://www.w3.org/2000/svg" xmlns:xlink="http://www.w3.org/1999/xlink" style="isolation:isolate" viewBox="747.5 3768.5 104 104" width="104" height="104"><g><path d=" M 844.391 3809.938 L 820.625 3833.703 C 810.35 3843.978 794.837 3842.243 787.609 3835.011 C 785.419 3832.819 786.015 3828.676 788.938 3825.76 C 791.443 3823.251 794.176 3822.354 798.175 3824.44 C 802.174 3826.53 806.931 3826.268 810.063 3823.141 L 833.828 3799.375 C 837.468 3795.731 837.468 3789.811 833.828 3786.172 C 830.189 3782.528 824.264 3782.528 820.625 3786.172 L 807.883 3798.909 C 803.897 3796.887 799.233 3795.753 794.485 3795.753 C 792.788 3795.753 791.117 3795.922 789.471 3796.197 L 810.063 3775.609 C 819.542 3766.13 834.911 3766.13 844.391 3775.609 C 853.87 3785.089 853.87 3800.458 844.391 3809.938 Z " fill="rgb(0,0,0)"/><path d=" M 803.199 3846.555 C 798.451 3846.555 793.787 3845.425 789.801 3843.402 L 778.375 3854.828 C 774.734 3858.468 768.813 3858.468 765.172 3854.828 C 761.531 3851.189 761.531 3845.264 765.172 3841.625 L 787.626 3819.171 C 790.753 3816.044 795.509 3815.777 799.508 3817.872 C 803.508 3819.958 806.241 3819.061 808.751 3816.552 C 811.67 3813.628 812.267 3809.489 810.079 3807.305 C 802.847 3800.069 787.334 3798.334 777.061 3808.609 L 754.609 3831.063 C 745.13 3840.537 745.13 3855.911 754.609 3865.391 C 764.089 3874.87 779.458 3874.87 788.938 3865.391 L 808.213 3846.111 C 806.567 3846.386 804.9 3846.555 803.199 3846.555 Z " fill="rgb(0,0,0)"/></g></svg>