<?xml version="1.0" encoding="utf-8"?>
<!-- Generator: Adobe Illustrator 23.1.1, SVG Export Plug-In . SVG Version: 6.00 Build 0)  -->
<svg version="1.1" id="Layer_1" xmlns="http://www.w3.org/2000/svg" x="0px"
     y="0px"
     viewBox="98 98 166 166" style="enable-background:new 98 98 166 166;" xml:space="preserve">
<style type="text/css">
	.st0{fill:#FAA819;}
</style>
    <g>
	<path class="st0" d="M242.09,119c-14.15-14.15-37.18-14.16-51.34,0l-23.78,23.78c-6.85,6.85-10.62,15.96-10.62,25.67
		c0,9.71,3.77,18.82,10.62,25.67c1.5,1.5,3.48,2.26,5.46,2.26c1.97,0,3.95-0.75,5.46-2.26c1.46-1.46,2.26-3.39,2.26-5.46
		c0-2.06-0.8-4-2.26-5.46c-8.28-8.27-8.28-21.24,0-29.52l23.78-23.78c8.27-8.28,21.24-8.28,29.52,0c8.28,8.27,8.28,21.24,0,29.52
		l-21.38,21.38c-3.04,2.97-3.11,7.87-0.14,10.91c1.44,1.48,3.37,2.3,5.43,2.33c2.05-0.04,4.01-0.75,5.6-2.31l21.4-21.4
		c6.85-6.85,10.62-15.96,10.62-25.67C252.71,134.96,248.94,125.85,242.09,119z"/>
        <path class="st0" d="M189,163.06c-1.75-0.44-4.34-0.43-6.82,2.06c-3.8,3.8-3.8,9.99,0,13.8l0.6,0.6c1.8,1.8,3.35,3.86,4.48,6.14
		c2.52,5.07,4.42,13.37-3.64,21.33l-23.78,23.78c-8.36,8.35-21.51,8.27-29.77-0.26c-7.97-8.23-7.55-21.45,0.55-29.56l21.08-21.08
		c1.48-1.44,2.31-3.36,2.34-5.43c0.03-2.06-0.75-4.01-2.18-5.49c-1.44-1.48-3.36-2.31-5.43-2.34c-1.91-0.12-4.01,0.74-5.62,2.31
		l-21.41,21.4c-14.15,14.16-14.15,37.19,0,51.34c7.08,7.08,16.38,10.62,25.67,10.62c9.3,0,18.59-3.54,25.67-10.62l23.78-23.78
		c6.85-6.85,10.62-15.96,10.62-25.67c0-9.71-3.77-18.82-10.62-25.67C192.62,164.66,190.81,163.51,189,163.06z"/>
</g>
</svg>
