<?xml version="1.0" standalone="no"?><!-- Generator: Gravit.io --><svg xmlns="http://www.w3.org/2000/svg" xmlns:xlink="http://www.w3.org/1999/xlink" style="isolation:isolate" viewBox="96.828 3705.797 205.909 230.001" width="205.909" height="230.001"><g><linearGradient id="_lgradient_12" x1="0" y1="0" x2="0.5" y2="1.0000000000000004" gradientTransform="matrix(205.909,0,0,230.001,96.828,3705.797)" gradientUnits="userSpaceOnUse"><stop offset="0%" stop-opacity="1" style="stop-color:rgb(240,70,29)"/><stop offset="100%" stop-opacity="1" style="stop-color:rgb(255,32,120)"/></linearGradient><path d=" M 199.862 3705.797 C 209.727 3705.797 296 3757 299.862 3763.297 C 303.724 3769.594 303.667 3871 299.862 3878.297 C 296.057 3885.594 210.667 3936 199.862 3935.797 C 189.057 3935.594 104.724 3885.928 99.862 3878.297 C 95 3870.667 96.724 3768.928 99.862 3763.297 C 103 3757.667 189.997 3705.797 199.862 3705.797 Z " fill="url(#_lgradient_12)"/><g><path d=" M 244.673 3810.236 L 220.908 3834.002 C 210.633 3844.277 195.119 3842.542 187.891 3835.309 C 185.701 3833.117 186.298 3828.974 189.22 3826.059 C 191.725 3823.549 194.459 3822.652 198.458 3824.739 C 202.457 3826.829 207.214 3826.567 210.345 3823.439 L 234.111 3799.674 C 237.75 3796.03 237.75 3790.11 234.111 3786.471 C 230.471 3782.827 224.547 3782.827 220.908 3786.471 L 208.166 3799.208 C 204.179 3797.185 199.516 3796.051 194.768 3796.051 C 193.071 3796.051 191.399 3796.221 189.753 3796.496 L 210.345 3775.908 C 219.824 3766.429 235.194 3766.429 244.673 3775.908 C 254.152 3785.387 254.152 3800.757 244.673 3810.236 Z " fill="rgb(255,255,255)"/><path d=" M 203.481 3846.854 C 198.733 3846.854 194.07 3845.724 190.083 3843.701 L 178.658 3855.127 C 175.016 3858.766 169.096 3858.766 165.454 3855.127 C 161.813 3851.487 161.813 3845.563 165.454 3841.924 L 187.908 3819.47 C 191.035 3816.343 195.792 3816.076 199.791 3818.171 C 203.79 3820.257 206.524 3819.36 209.033 3816.851 C 211.953 3813.926 212.55 3809.788 210.362 3807.604 C 203.13 3800.368 187.616 3798.633 177.343 3808.908 L 154.892 3831.361 C 145.413 3840.836 145.413 3856.21 154.892 3865.689 C 164.371 3875.169 179.741 3875.169 189.22 3865.689 L 208.496 3846.409 C 206.85 3846.684 205.182 3846.854 203.481 3846.854 Z " fill="rgb(255,255,255)"/></g></g></svg>